# xmcd
#
# Track frame offsets:
#	150
#	12952
#	27574
#	40921
#	55164
#	68793
#	82377
#	95284
#	109069
#	121392
#	134807
#	148451
#	163113
#	183400
#	195422
#	210609
#	223918
#	237378
#	253241
#	264805
#	278078
#	291431
#	302617
#	315237
#	328537
#
# Disc length: 4614 seconds
#
# Revision: 761344358
# Processed by: cddbd v1.5.2PL0 Copyright (c) Steve Scherf et al.
# Submitted via: EZCDAudioConverter 8.0.7.1
#
DISCID=84120419
DTITLE=Various Artist - The Rough Guide To Country Legends: Jimmie Rodgers - 
DTITLE=Country Music Pioneers
DYEAR=2013
DGENRE=Country
TTITLE0=The Carter Family - Keep On The Sunny Side
TTITLE1=Alfred G. Karnes - I Bound For The Promised Land
TTITLE2=J.P. Nester - Black Eyed Susie
TTITLE3=Sam McGee - Chevrolet Car
TTITLE4=Crockett's Kentucky Mountaineers - Little Rabbit
TTITLE5=Darby And Tarleton - Sweet Sarah Blues
TTITLE6=Charlie Poole and The North Carolina Ramblers - Sweet Sixteen
TTITLE7=Buell Kazee - The Wagoner's Lad
TTITLE8=Smyth County Ramblers - My Name Is Ticklish Reuben
TTITLE9=Cliff Carlisle - Ash Can Blues
TTITLE10=Uncle Dave Macon - Death Of John Henry (Steel Driving Man)
TTITLE11=Burnett and Rutherford - All Night Long Blues
TTITLE12=B.F. Shelton - Pretty Polly
TTITLE13=Tenneva Ramblers - Miss Liza Poor Gal
TTITLE14=Frank Hutchinson - Worried Blues
TTITLE15=Gid Tanner and His Skillet Lickers - It Ain't Gonna Rain No Mo'
TTITLE16=Dock Boggs - Sugar Baby
TTITLE17=Dad Blackard's Moonshiners - Sandy River Belle
TTITLE18=Clarence Green - Goodnight Darling
TTITLE19=Fiddlin' John Carson and His Virginia Reelers - Gonna Swing On The Gold
TTITLE19=en Gate
TTITLE20=E Stoneman, EK Brewer And M Mooney - Tell Mother I Will Meet Her
TTITLE21=John Hammond - My Mama Always Talked To Me
TTITLE22=Uncle Eck Dunford - Angeline The Baker
TTITLE23=Clarence Ashley - Dark Hollow Blues
TTITLE24=Vernon Dalhart and Carson Robison - Just A Melody
EXTD=
EXTT0=
EXTT1=
EXTT2=
EXTT3=
EXTT4=
EXTT5=
EXTT6=
EXTT7=
EXTT8=
EXTT9=
EXTT10=
EXTT11=
EXTT12=
EXTT13=
EXTT14=
EXTT15=
EXTT16=
EXTT17=
EXTT18=
EXTT19=
EXTT20=
EXTT21=
EXTT22=
EXTT23=
EXTT24=
PLAYORDER=
